<svg width="50" height="50" viewBox="0 0 50 50" fill="none" xmlns="http://www.w3.org/2000/svg">
<path d="M24.7468 19.0544C29.9471 19.0544 34.1628 14.8387 34.1628 9.63842C34.1628 4.4381 29.9471 0.222412 24.7468 0.222412C19.5465 0.222412 15.3308 4.4381 15.3308 9.63842C15.3308 14.8387 19.5465 19.0544 24.7468 19.0544Z" fill="#002545"/>
<path d="M24.7468 49.6196C29.9471 49.6196 34.1628 45.4039 34.1628 40.2036C34.1628 35.0033 29.9471 30.7876 24.7468 30.7876C19.5465 30.7876 15.3308 35.0033 15.3308 40.2036C15.3308 45.4039 19.5465 49.6196 24.7468 49.6196Z" fill="#002545"/>
<path d="M40.027 34.3393C45.2273 34.3393 49.443 30.1236 49.443 24.9233C49.443 19.723 45.2273 15.5073 40.027 15.5073C34.8267 15.5073 30.611 19.723 30.611 24.9233C30.611 30.1236 34.8267 34.3393 40.027 34.3393Z" fill="#002545"/>
<path d="M9.4619 34.3393C14.6622 34.3393 18.8779 30.1236 18.8779 24.9233C18.8779 19.723 14.6622 15.5073 9.4619 15.5073C4.26159 15.5073 0.0458984 19.723 0.0458984 24.9233C0.0458984 30.1236 4.26159 34.3393 9.4619 34.3393Z" fill="#002545"/>
</svg>
