<svg width="51" height="51" viewBox="0 0 51 51" fill="none" xmlns="http://www.w3.org/2000/svg">
<path d="M25.4016 12.8925C28.7614 12.8925 31.485 10.1688 31.485 6.80904C31.485 3.44924 28.7614 0.725586 25.4016 0.725586C22.0418 0.725586 19.3181 3.44924 19.3181 6.80904C19.3181 10.1688 22.0418 12.8925 25.4016 12.8925Z" fill="#002545"/>
<path d="M12.2382 18.3464C15.598 18.3464 18.3217 15.6227 18.3217 12.2629C18.3217 8.9031 15.598 6.17944 12.2382 6.17944C8.87844 6.17944 6.15479 8.9031 6.15479 12.2629C6.15479 15.6227 8.87844 18.3464 12.2382 18.3464Z" fill="#002545"/>
<path d="M6.78414 31.5099C10.1439 31.5099 12.8676 28.7863 12.8676 25.4265C12.8676 22.0667 10.1439 19.343 6.78414 19.343C3.42434 19.343 0.700684 22.0667 0.700684 25.4265C0.700684 28.7863 3.42434 31.5099 6.78414 31.5099Z" fill="#002545"/>
<path d="M12.2382 44.6735C15.598 44.6735 18.3217 41.9498 18.3217 38.59C18.3217 35.2302 15.598 32.5066 12.2382 32.5066C8.87844 32.5066 6.15479 35.2302 6.15479 38.59C6.15479 41.9498 8.87844 44.6735 12.2382 44.6735Z" fill="#002545"/>
<path d="M25.4016 50.1227C28.7614 50.1227 31.485 47.3991 31.485 44.0393C31.485 40.6795 28.7614 37.9558 25.4016 37.9558C22.0418 37.9558 19.3181 40.6795 19.3181 44.0393C19.3181 47.3991 22.0418 50.1227 25.4016 50.1227Z" fill="#002545"/>
<path d="M38.5651 44.6735C41.9249 44.6735 44.6486 41.9498 44.6486 38.59C44.6486 35.2302 41.9249 32.5066 38.5651 32.5066C35.2053 32.5066 32.4817 35.2302 32.4817 38.59C32.4817 41.9498 35.2053 44.6735 38.5651 44.6735Z" fill="#002545"/>
<path d="M44.0144 31.5099C47.3742 31.5099 50.0978 28.7863 50.0978 25.4265C50.0978 22.0667 47.3742 19.343 44.0144 19.343C40.6546 19.343 37.9309 22.0667 37.9309 25.4265C37.9309 28.7863 40.6546 31.5099 44.0144 31.5099Z" fill="#002545"/>
<path d="M38.5651 18.3464C41.9249 18.3464 44.6486 15.6227 44.6486 12.2629C44.6486 8.9031 41.9249 6.17944 38.5651 6.17944C35.2053 6.17944 32.4817 8.9031 32.4817 12.2629C32.4817 15.6227 35.2053 18.3464 38.5651 18.3464Z" fill="#002545"/>
<path d="M25.4016 12.8925C28.7614 12.8925 31.485 10.1688 31.485 6.80904C31.485 3.44924 28.7614 0.725586 25.4016 0.725586C22.0418 0.725586 19.3181 3.44924 19.3181 6.80904C19.3181 10.1688 22.0418 12.8925 25.4016 12.8925Z" fill="#002545"/>
</svg>
